<svg width="16" height="17" viewBox="0 0 16 17" fill="none" xmlns="http://www.w3.org/2000/svg">
<g id="calendar">
<g id="Group">
<path id="Vector" d="M4.96401 2.5C5.21361 2.5 5.41581 2.6944 5.41581 2.9344V3.8104C5.81661 3.8032 6.26601 3.8032 6.77181 3.8032H9.18082C9.68602 3.8032 10.1354 3.8032 10.5362 3.811V2.935C10.5362 2.695 10.7384 2.5 10.988 2.5C11.2376 2.5 11.4398 2.6944 11.4398 2.9344V3.85C12.3068 3.9166 12.8762 4.0804 13.2938 4.483C13.7126 4.88501 13.883 5.43221 13.952 6.26621L14 6.70001H2V6.26561C2.0696 5.43161 2.24 4.88441 2.6582 4.4824C3.0764 4.0804 3.6452 3.916 4.51221 3.8494V2.9344C4.51221 2.6944 4.71441 2.5 4.96401 2.5Z" fill="white"/>
<path id="Vector_2" opacity="0.5" d="M14.0002 9.7002V8.5002C14.0002 7.9968 13.9978 7.0992 13.99 6.7002H2.00618C1.99838 7.0992 2.00018 7.9968 2.00018 8.5002V9.7002C2.00018 11.9628 2.00018 13.0944 2.70338 13.797C3.40598 14.5002 4.53699 14.5002 6.80019 14.5002H9.2002C11.4622 14.5002 12.5938 14.5002 13.297 13.797C14.0002 13.0944 14.0002 11.9628 14.0002 9.7002Z" fill="white"/>
<path id="Vector_3" d="M11.5985 11.5C11.5985 11.6591 11.5352 11.8118 11.4227 11.9243C11.3102 12.0368 11.1576 12.1 10.9985 12.1C10.8393 12.1 10.6867 12.0368 10.5742 11.9243C10.4617 11.8118 10.3985 11.6591 10.3985 11.5C10.3985 11.3409 10.4617 11.1883 10.5742 11.0757C10.6867 10.9632 10.8393 10.9 10.9985 10.9C11.1576 10.9 11.3102 10.9632 11.4227 11.0757C11.5352 11.1883 11.5985 11.3409 11.5985 11.5ZM11.5985 9.1C11.5985 9.25913 11.5352 9.41174 11.4227 9.52427C11.3102 9.63679 11.1576 9.7 10.9985 9.7C10.8393 9.7 10.6867 9.63679 10.5742 9.52427C10.4617 9.41174 10.3985 9.25913 10.3985 9.1C10.3985 8.94087 10.4617 8.78826 10.5742 8.67574C10.6867 8.56321 10.8393 8.5 10.9985 8.5C11.1576 8.5 11.3102 8.56321 11.4227 8.67574C11.5352 8.78826 11.5985 8.94087 11.5985 9.1ZM8.59845 11.5C8.59845 11.6591 8.53523 11.8118 8.42271 11.9243C8.31019 12.0368 8.15758 12.1 7.99845 12.1C7.83932 12.1 7.6867 12.0368 7.57418 11.9243C7.46166 11.8118 7.39844 11.6591 7.39844 11.5C7.39844 11.3409 7.46166 11.1883 7.57418 11.0757C7.6867 10.9632 7.83932 10.9 7.99845 10.9C8.15758 10.9 8.31019 10.9632 8.42271 11.0757C8.53523 11.1883 8.59845 11.3409 8.59845 11.5ZM8.59845 9.1C8.59845 9.25913 8.53523 9.41174 8.42271 9.52427C8.31019 9.63679 8.15758 9.7 7.99845 9.7C7.83932 9.7 7.6867 9.63679 7.57418 9.52427C7.46166 9.41174 7.39844 9.25913 7.39844 9.1C7.39844 8.94087 7.46166 8.78826 7.57418 8.67574C7.6867 8.56321 7.83932 8.5 7.99845 8.5C8.15758 8.5 8.31019 8.56321 8.42271 8.67574C8.53523 8.78826 8.59845 8.94087 8.59845 9.1ZM5.59844 11.5C5.59844 11.6591 5.53523 11.8118 5.4227 11.9243C5.31018 12.0368 5.15757 12.1 4.99844 12.1C4.83931 12.1 4.6867 12.0368 4.57417 11.9243C4.46165 11.8118 4.39844 11.6591 4.39844 11.5C4.39844 11.3409 4.46165 11.1883 4.57417 11.0757C4.6867 10.9632 4.83931 10.9 4.99844 10.9C5.15757 10.9 5.31018 10.9632 5.4227 11.0757C5.53523 11.1883 5.59844 11.3409 5.59844 11.5ZM5.59844 9.1C5.59844 9.25913 5.53523 9.41174 5.4227 9.52427C5.31018 9.63679 5.15757 9.7 4.99844 9.7C4.83931 9.7 4.6867 9.63679 4.57417 9.52427C4.46165 9.41174 4.39844 9.25913 4.39844 9.1C4.39844 8.94087 4.46165 8.78826 4.57417 8.67574C4.6867 8.56321 4.83931 8.5 4.99844 8.5C5.15757 8.5 5.31018 8.56321 5.4227 8.67574C5.53523 8.78826 5.59844 8.94087 5.59844 9.1Z" fill="white"/>
</g>
</g>
</svg>
