<svg width="20" height="20" viewBox="0 0 20 20" fill="none" xmlns="http://www.w3.org/2000/svg">
<path d="M10.002 18.3333C14.604 18.3329 18.3346 14.602 18.3346 9.99996C18.3346 5.39767 14.6036 1.66663 10.0013 1.66663C5.39902 1.66663 1.66797 5.39767 1.66797 9.99996C1.66797 11.3313 1.98068 12.5922 2.53814 13.711C2.57441 13.7841 2.56948 13.8329 2.56522 13.8491C2.56521 13.8491 2.56519 13.8492 2.56518 13.8492L2.12862 15.4808L2.12856 15.481C2.04008 15.812 2.04021 16.1604 2.12893 16.4913C2.21765 16.8222 2.39184 17.124 2.63402 17.3663C2.8762 17.6086 3.17785 17.783 3.50871 17.8719C3.83956 17.9608 4.18798 17.9611 4.519 17.8729L4.51958 17.8727L6.14201 17.4389C6.18746 17.4287 6.23513 17.4348 6.2766 17.4562L6.28343 17.4597L6.29032 17.4632C7.44333 18.0372 8.71405 18.335 10.002 18.3333ZM10.002 18.3333C10.0023 18.3333 10.0025 18.3333 10.0028 18.3333L10.0013 17.3333V18.3333C10.0015 18.3333 10.0018 18.3333 10.002 18.3333Z" fill="#2B2D3B" stroke="#2B2D3B" stroke-width="2"/>
<path d="M12.408 9.47208L11.7103 8.7744C12.0353 8.44934 12.4762 8.26672 12.9359 8.26672C13.3956 8.26672 13.8365 8.44934 14.1616 8.7744C14.4867 9.09947 14.6693 9.54035 14.6693 10.0001C14.6693 10.4598 14.4867 10.9006 14.1616 11.2257C13.8365 11.5508 13.3956 11.7334 12.9359 11.7334C12.4762 11.7334 12.0353 11.5508 11.7103 11.2257L12.408 9.47208ZM12.408 9.47208L11.7103 8.77441C11.6182 8.86648 11.5376 8.96784 11.4693 9.07629C11.401 8.96784 11.3203 8.86648 11.2283 8.77441L10.5978 9.40484L11.2283 8.7744C10.9032 8.44934 10.4623 8.26672 10.0026 8.26672C9.5429 8.26672 9.10202 8.44934 8.77695 8.77441C8.68488 8.86648 8.60424 8.96784 8.53594 9.07629C8.46763 8.96784 8.38699 8.86648 8.29492 8.77441C7.96986 8.44934 7.52898 8.26672 7.06927 8.26672C6.60956 8.26672 6.16868 8.44934 5.84362 8.77441L6.55073 9.48151L5.84362 8.77441C5.51856 9.09947 5.33594 9.54035 5.33594 10.0001C5.33594 10.4598 5.51856 10.9006 5.84362 11.2257C6.16868 11.5508 6.60956 11.7334 7.06927 11.7334C7.52898 11.7334 7.96986 11.5508 8.29492 11.2257C8.38699 11.1336 8.46763 11.0323 8.53594 10.9238C8.60424 11.0323 8.68488 11.1336 8.77695 11.2257C9.10202 11.5508 9.5429 11.7334 10.0026 11.7334C10.4623 11.7334 10.9032 11.5508 11.2283 11.2257L10.5211 10.5186M12.408 9.47208L10.5211 10.5186M10.5211 10.5186L11.2283 11.2257C11.3203 11.1336 11.401 11.0323 11.4693 10.9238M10.5211 10.5186L11.4693 10.9238M11.4693 10.9238C11.5376 11.0323 11.6182 11.1336 11.7103 11.2257L12.4174 10.5186L11.4693 10.9238Z" fill="#2B2D3B" stroke="#2B2D3B" stroke-width="2"/>
<path opacity="0.5" d="M10.0013 17.3333C14.0513 17.3333 17.3346 14.05 17.3346 9.99996C17.3346 5.94996 14.0513 2.66663 10.0013 2.66663C5.9513 2.66663 2.66797 5.94996 2.66797 9.99996C2.66797 11.1733 2.9433 12.282 3.4333 13.2653C3.5633 13.5266 3.60664 13.8253 3.5313 14.1073L3.09464 15.7393C3.05146 15.9008 3.05152 16.0709 3.09482 16.2324C3.13812 16.3939 3.22313 16.5411 3.34133 16.6594C3.45953 16.7777 3.60675 16.8628 3.76822 16.9062C3.9297 16.9496 4.09975 16.9497 4.2613 16.9066L5.89464 16.47C6.17766 16.3991 6.47681 16.4339 6.73597 16.568C7.75031 17.0729 8.86823 17.3349 10.0013 17.3333Z" fill="#FCB750"/>
<path d="M9.26927 10.0001C9.26927 10.1945 9.34653 10.3811 9.48406 10.5186C9.62159 10.6561 9.80811 10.7334 10.0026 10.7334C10.1971 10.7334 10.3836 10.6561 10.5211 10.5186C10.6587 10.3811 10.7359 10.1945 10.7359 10.0001C10.7359 9.80557 10.6587 9.61904 10.5211 9.48151C10.3836 9.34399 10.1971 9.26672 10.0026 9.26672C9.80811 9.26672 9.62159 9.34399 9.48406 9.48151C9.34653 9.61904 9.26927 9.80557 9.26927 10.0001ZM6.33594 10.0001C6.33594 10.1945 6.4132 10.3811 6.55073 10.5186C6.68825 10.6561 6.87478 10.7334 7.06927 10.7334C7.26376 10.7334 7.45029 10.6561 7.58782 10.5186C7.72534 10.3811 7.8026 10.1945 7.8026 10.0001C7.8026 9.80557 7.72534 9.61904 7.58782 9.48151C7.45029 9.34399 7.26376 9.26672 7.06927 9.26672C6.87478 9.26672 6.68825 9.34399 6.55073 9.48151C6.4132 9.61904 6.33594 9.80557 6.33594 10.0001ZM12.2026 10.0001C12.2026 10.1945 12.2799 10.3811 12.4174 10.5186C12.5549 10.6561 12.7414 10.7334 12.9359 10.7334C13.1304 10.7334 13.317 10.6561 13.4545 10.5186C13.592 10.3811 13.6693 10.1945 13.6693 10.0001C13.6693 9.80557 13.592 9.61904 13.4545 9.48151C13.317 9.34399 13.1304 9.26672 12.9359 9.26672C12.7414 9.26672 12.5549 9.34399 12.4174 9.48151C12.2799 9.61904 12.2026 9.80557 12.2026 10.0001Z" fill="#FCB750"/>
</svg>
