<svg width="20" height="20" viewBox="0 0 20 20" fill="none" xmlns="http://www.w3.org/2000/svg">
<rect width="20" height="20" rx="6" fill="#252530"/>
<path opacity="0.3" d="M10.0004 17.5004C6.46471 17.5004 4.69687 17.5004 3.59806 16.4016C2.5 15.3043 2.5 13.5357 2.5 9.99998C2.5 6.46429 2.5 4.69644 3.59806 3.59763C4.69762 2.49957 6.46471 2.49957 10.0004 2.49957C13.5361 2.49957 15.3039 2.49957 16.402 3.59763C17.5008 4.69719 17.5008 6.46429 17.5008 9.99998C17.5008 13.5357 17.5008 15.3035 16.402 16.4016C15.3047 17.5004 13.5361 17.5004 10.0004 17.5004Z" fill="#03E39E"/>
<path d="M14.2687 6.85259C14.4171 6.99866 14.5005 7.19667 14.5005 7.40312C14.5005 7.60956 14.4171 7.80757 14.2687 7.95364L8.98554 13.1473C8.83695 13.2932 8.63553 13.3751 8.42552 13.3751C8.21551 13.3751 8.01409 13.2932 7.8655 13.1473L5.75223 11.0698C5.67437 10.9985 5.61192 10.9125 5.5686 10.8169C5.52529 10.7214 5.502 10.6182 5.50012 10.5136C5.49825 10.409 5.51782 10.3051 5.55768 10.2081C5.59753 10.1111 5.65686 10.023 5.73211 9.949C5.80736 9.87502 5.897 9.81671 5.99568 9.77752C6.09436 9.73834 6.20005 9.7191 6.30646 9.72094C6.41286 9.72279 6.5178 9.74569 6.61501 9.78827C6.71222 9.83084 6.79971 9.89224 6.87226 9.96878L8.42552 11.4957L13.1487 6.85259C13.2973 6.7067 13.4987 6.62476 13.7087 6.62476C13.9187 6.62476 14.1201 6.7067 14.2687 6.85259Z" fill="#03E39E"/>
</svg>
