<svg width="20" height="20" viewBox="0 0 20 20" fill="none" xmlns="http://www.w3.org/2000/svg">
<g clip-path="url(#clip0_890_47093)">
<path d="M14.0415 1.802L14.7085 2.208C16.6811 3.41 17.6669 4.011 18.2085 5C18.75 5.99 18.75 7.19 18.75 9.594V10.406C18.75 12.809 18.75 14.011 18.2085 15C17.6669 15.99 16.6811 16.59 14.7085 17.791L14.0415 18.198C12.0689 19.399 11.0831 20 10 20C8.91694 20 7.93111 19.4 5.95847 18.198L5.29153 17.791C3.31889 16.591 2.33306 15.989 1.79153 15C1.25 14.01 1.25 12.81 1.25 10.406V9.594C1.25 7.19 1.25 5.989 1.79153 5C2.33306 4.01 3.31889 3.41 5.29153 2.208L5.95847 1.802C7.93111 0.601 8.91694 0 10 0C11.0831 0 12.0689 0.6 14.0415 1.802Z" fill="#C52136"/>
<path d="M13.1755 3.87653L13.6995 4.18667C15.2494 5.10486 16.024 5.56396 16.4495 6.31944C16.875 7.07569 16.875 7.99236 16.875 9.82875V10.449C16.875 12.2847 16.875 13.2028 16.4495 13.9583C16.024 14.7146 15.2494 15.1729 13.6995 16.0903L13.1755 16.4012C11.6256 17.3187 10.851 17.7778 10 17.7778C9.14903 17.7778 8.37444 17.3194 6.82451 16.4012L6.30049 16.0903C4.75056 15.1737 3.97597 14.7138 3.55049 13.9583C3.125 13.2021 3.125 12.2854 3.125 10.449V9.82875C3.125 7.99236 3.125 7.07493 3.55049 6.31944C3.97597 5.56319 4.75056 5.10486 6.30049 4.18667L6.82451 3.87653C8.37444 2.9591 9.14903 2.5 10 2.5C10.851 2.5 11.6256 2.95833 13.1755 3.87653Z" fill="white"/>
<path d="M7.58757 6.87003L10 9.28236L12.3999 6.88253C12.4529 6.82611 12.5168 6.78097 12.5877 6.74983C12.6586 6.71869 12.735 6.70218 12.8124 6.70129C12.9782 6.70129 13.1371 6.76714 13.2543 6.88434C13.3716 7.00154 13.4374 7.1605 13.4374 7.32625C13.4389 7.40287 13.4246 7.47898 13.3956 7.54991C13.3666 7.62084 13.3234 7.68509 13.2687 7.73872L10.8375 10.1385L13.2687 12.5696C13.3717 12.6704 13.4321 12.8068 13.4374 12.9508C13.4374 13.1166 13.3716 13.2756 13.2543 13.3928C13.1371 13.51 12.9782 13.5758 12.8124 13.5758C12.7328 13.5791 12.6533 13.5658 12.5791 13.5368C12.5048 13.5077 12.4374 13.4635 12.3812 13.4071L10 10.9947L7.59382 13.4008C7.54101 13.4554 7.47793 13.4989 7.4082 13.5289C7.33848 13.559 7.2635 13.5749 7.18758 13.5758C7.02183 13.5758 6.86286 13.51 6.74565 13.3928C6.62845 13.2756 6.5626 13.1166 6.5626 12.9508C6.56114 12.8742 6.57536 12.7981 6.60438 12.7272C6.6334 12.6563 6.6766 12.592 6.73135 12.5384L9.16252 10.1385L6.73135 7.70747C6.62834 7.6067 6.56794 7.47025 6.5626 7.32625C6.5626 7.1605 6.62845 7.00154 6.74565 6.88434C6.86286 6.76714 7.02183 6.70129 7.18758 6.70129C7.33758 6.70317 7.48132 6.76379 7.58757 6.87003Z" fill="#C52136"/>
</g>
<defs>
<clipPath id="clip0_890_47093">
<rect width="20" height="20" rx="4" fill="white"/>
</clipPath>
</defs>
</svg>
