<svg width="24" height="24" viewBox="0 0 24 24" fill="none" xmlns="http://www.w3.org/2000/svg">
<mask id="mask0_1707_22813" style="mask-type:alpha" maskUnits="userSpaceOnUse" x="0" y="0" width="24" height="24">
<path d="M2.74905 5.167C2.74905 4.707 3.09405 4.333 3.52005 4.333H6.18505C6.71405 4.318 7.18105 3.955 7.36105 3.417L7.39105 3.322L7.50605 2.95C7.57605 2.722 7.63705 2.523 7.72305 2.345C8.06105 1.643 8.68705 1.156 9.41005 1.031C9.59405 1 9.78705 1 10.01 1H13.488C13.711 1 13.905 1 14.088 1.031C14.811 1.156 15.438 1.643 15.775 2.345C15.861 2.523 15.922 2.722 15.992 2.95L16.107 3.322L16.137 3.417C16.317 3.955 16.877 4.319 17.407 4.333H19.977C20.404 4.333 20.749 4.706 20.749 5.167C20.749 5.627 20.404 6 19.978 6H3.51905C3.09305 6 2.74905 5.627 2.74905 5.167Z" fill="white"/>
<path d="M11.606 21H12.393C15.1 21 16.453 21 17.334 20.137C18.214 19.273 18.304 17.857 18.484 15.026L18.744 10.945C18.842 9.40802 18.891 8.64002 18.449 8.15302C18.007 7.66602 17.262 7.66602 15.77 7.66602H8.22902C6.73802 7.66602 5.99202 7.66602 5.55002 8.15302C5.10902 8.64002 5.15802 9.40802 5.25502 10.945L5.51502 15.025C5.69502 17.858 5.78502 19.273 6.66502 20.137C7.54402 21 8.89902 21 11.606 21Z" fill="white"/>
</mask>
<g mask="url(#mask0_1707_22813)">
<rect width="24" height="24" fill="#9A9CAC"/>
</g>
</svg>
