<svg width="14" height="14" viewBox="0 0 14 14" fill="none" xmlns="http://www.w3.org/2000/svg">
<path fill-rule="evenodd" clip-rule="evenodd" d="M13.4001 7C13.4001 8.69738 12.7258 10.3252 11.5256 11.5255C10.3253 12.7257 8.69748 13.4 7.0001 13.4C5.30271 13.4 3.67485 12.7257 2.47461 11.5255C1.27438 10.3252 0.600098 8.69738 0.600098 7C0.600098 5.30261 1.27438 3.67475 2.47461 2.47452C3.67485 1.27428 5.30271 0.599998 7.0001 0.599998C8.69748 0.599998 10.3253 1.27428 11.5256 2.47452C12.7258 3.67475 13.4001 5.30261 13.4001 7ZM7.0001 3C7.15923 3 7.31184 3.06321 7.42436 3.17573C7.53688 3.28826 7.6001 3.44087 7.6001 3.6V7.2C7.6001 7.35913 7.53688 7.51174 7.42436 7.62426C7.31184 7.73678 7.15923 7.8 7.0001 7.8C6.84097 7.8 6.68836 7.73678 6.57583 7.62426C6.46331 7.51174 6.4001 7.35913 6.4001 7.2V3.6C6.4001 3.44087 6.46331 3.28826 6.57583 3.17573C6.68836 3.06321 6.84097 3 7.0001 3ZM7.0001 11C7.21227 11 7.41575 10.9157 7.56578 10.7657C7.71581 10.6157 7.8001 10.4122 7.8001 10.2C7.8001 9.98783 7.71581 9.78434 7.56578 9.63431C7.41575 9.48428 7.21227 9.4 7.0001 9.4C6.78792 9.4 6.58444 9.48428 6.43441 9.63431C6.28438 9.78434 6.2001 9.98783 6.2001 10.2C6.2001 10.4122 6.28438 10.6157 6.43441 10.7657C6.58444 10.9157 6.78792 11 7.0001 11Z" fill="#C52136"/>
</svg>
