<svg width="20" height="20" viewBox="0 0 20 20" fill="none" xmlns="http://www.w3.org/2000/svg">
<g clip-path="url(#clip0_890_46394)">
<path d="M5.86385 11.2579C5.79804 11.2579 5.73492 11.284 5.68839 11.3306C5.64185 11.3771 5.61571 11.4402 5.61571 11.506C5.61571 11.5718 5.64185 11.635 5.68839 11.6815C5.73492 11.728 5.79804 11.7542 5.86385 11.7542C5.92966 11.7542 5.99277 11.728 6.03931 11.6815C6.08584 11.635 6.11199 11.5718 6.11199 11.506C6.11199 11.4402 6.08584 11.3771 6.03931 11.3306M5.86385 11.2579L6.03931 11.3306M5.86385 11.2579C5.92966 11.2579 5.99277 11.284 6.03931 11.3306M5.86385 11.2579L6.39549 10.9744L6.03931 11.3306M11.1269 11.2579C11.0611 11.2579 10.998 11.284 10.9514 11.3306C10.9049 11.3771 10.8787 11.4402 10.8787 11.506C10.8787 11.5718 10.9049 11.635 10.9514 11.6815C10.998 11.728 11.0611 11.7542 11.1269 11.7542C11.1927 11.7542 11.2558 11.728 11.3023 11.6815M11.1269 11.2579L11.3023 11.6815M11.1269 11.2579C11.1927 11.2579 11.2558 11.284 11.3023 11.3306M11.1269 11.2579L11.6585 10.9744L11.3023 11.3306M11.3023 11.6815L11.6585 12.0377L11.3023 11.3306M11.3023 11.6815C11.3489 11.635 11.375 11.5718 11.375 11.506C11.375 11.4402 11.3489 11.3771 11.3023 11.3306M15.5103 11.5058V11.5055C15.5097 10.4528 15.2722 9.41383 14.8154 8.46545L13.9145 8.89938L14.8154 8.46545C14.3587 7.51708 13.6943 6.68366 12.8716 6.02697C12.049 5.37028 11.089 4.90715 10.063 4.67191C9.037 4.43668 7.9712 4.43536 6.9446 4.66807C5.91801 4.90077 4.95695 5.36153 4.13265 6.01618C3.30835 6.67084 2.64195 7.50262 2.18284 8.44986C1.72373 9.3971 1.48369 10.4355 1.4805 11.4882C1.47731 12.5408 1.71106 13.5806 2.16442 14.5306L2.16898 14.5402L2.17373 14.5496C2.2002 14.6022 2.20769 14.6623 2.19504 14.7196L1.95202 15.6287C1.952 15.6288 1.95199 15.6288 1.95197 15.6289C1.86238 15.9639 1.86248 16.3166 1.95225 16.6516C2.04205 16.9867 2.21839 17.2922 2.46358 17.5375L2.46359 17.5375C2.70878 17.7829 3.0142 17.9594 3.34918 18.0494C3.68417 18.1394 4.03694 18.1397 4.37208 18.0503L4.37325 18.05L5.28186 17.8064C5.33927 17.7938 5.39934 17.8013 5.45196 17.8278L5.46103 17.8323L5.47019 17.8367C6.53964 18.3479 7.72118 18.5797 8.90451 18.5106C10.0878 18.4415 11.2343 18.0736 12.237 17.4414C13.2396 16.8091 14.0657 15.9331 14.6381 14.8952C15.2105 13.8572 15.5106 12.6911 15.5103 11.5058ZM8.3199 11.3306C8.36644 11.284 8.42956 11.2579 8.49536 11.2579C8.56117 11.2579 8.62429 11.284 8.67083 11.3306C8.71736 11.3771 8.7435 11.4402 8.7435 11.506C8.7435 11.5718 8.71736 11.635 8.67082 11.6815C8.62429 11.728 8.56118 11.7542 8.49536 11.7542C8.42955 11.7542 8.36644 11.728 8.3199 11.6815C8.27337 11.635 8.24723 11.5718 8.24723 11.506C8.24723 11.4402 8.27337 11.3771 8.3199 11.3306Z" fill="#2B2D3B" stroke="#2B2D3B" stroke-width="2"/>
<path d="M14.4981 11.8879L14.4981 11.8879L14.2978 11.8751M14.4981 11.8879L14.2978 11.8751M14.4981 11.8879V11.8879V11.8879ZM14.2978 11.8751L14.4981 12.8879H14.4988H15.4372L15.4467 12.7391L15.9301 12.8687C16.2345 12.9505 16.555 12.9507 16.8595 12.8693C17.164 12.7878 17.4416 12.6276 17.6645 12.4048C17.8874 12.1819 18.0476 11.9042 18.129 11.5998C18.2104 11.2955 18.2102 10.9753 18.1286 10.6711C18.1285 10.6709 18.1285 10.6706 18.1284 10.6704L17.9324 9.93916C17.9319 9.93506 17.9326 9.93087 17.9345 9.92715L17.9409 9.91441L17.9469 9.90149C18.2779 9.19291 18.4645 8.42546 18.4956 7.64398C18.5268 6.86249 18.4019 6.08263 18.1283 5.34996L17.1915 5.69981L18.1283 5.34996C17.8546 4.61728 17.4378 3.94646 16.902 3.37669C16.3662 2.80692 15.7223 2.34962 15.0078 2.03149C14.2933 1.71336 13.5226 1.54078 12.7407 1.52384C11.9588 1.5069 11.1813 1.64593 10.4538 1.93281C9.72616 2.2197 9.06303 2.64868 8.50308 3.19471L9.20124 3.91066L8.50308 3.19471C7.94314 3.74074 7.49761 4.39287 7.19251 5.11301L6.56076 6.60415L8.17693 6.50108C8.88779 6.45575 9.60015 6.56237 10.2666 6.81385C10.933 7.06532 11.5383 7.45589 12.042 7.95953C12.5457 8.46318 12.9363 9.06836 13.1879 9.73477C13.4394 10.4012 13.5461 11.1135 13.5009 11.8244L14.2978 11.8751Z" fill="#2B2D3B" stroke="#2B2D3B" stroke-width="2"/>
<path fill-rule="evenodd" clip-rule="evenodd" d="M14.5103 11.506C14.5105 12.5224 14.2533 13.5223 13.7624 14.4123C13.2716 15.3023 12.5633 16.0534 11.7036 16.5955C10.8439 17.1376 9.86082 17.453 8.84618 17.5123C7.83155 17.5716 6.81844 17.3728 5.90144 16.9345C5.63407 16.7999 5.32745 16.7653 5.0368 16.8367L4.11426 17.0841C3.94861 17.1283 3.77424 17.1282 3.60866 17.0837C3.44308 17.0392 3.29211 16.9519 3.17091 16.8306C3.04972 16.7094 2.96255 16.5584 2.91817 16.3927C2.87378 16.2271 2.87374 16.0528 2.91805 15.8871L3.16466 14.9646C3.23618 14.6739 3.20152 14.3673 3.06692 14.1C2.67819 13.2854 2.47776 12.3938 2.4805 11.4912C2.48323 10.5886 2.68906 9.69822 3.08272 8.88601C3.47638 8.0738 4.04778 7.3606 4.75457 6.79926C5.46136 6.23793 6.28542 5.84285 7.16567 5.64332C8.04592 5.44379 8.95979 5.44492 9.83954 5.64662C10.7193 5.84833 11.5424 6.24544 12.2478 6.80851C12.9532 7.37159 13.5228 8.0862 13.9145 8.89938C14.3061 9.71256 14.5098 10.6035 14.5103 11.506ZM5.86385 12.2579C6.06325 12.2579 6.25449 12.1787 6.39549 12.0377C6.5365 11.8967 6.61571 11.7054 6.61571 11.506C6.61571 11.3066 6.5365 11.1154 6.39549 10.9744C6.25449 10.8334 6.06325 10.7542 5.86385 10.7542C5.66444 10.7542 5.4732 10.8334 5.3322 10.9744C5.1912 11.1154 5.11199 11.3066 5.11199 11.506C5.11199 11.7054 5.1912 11.8967 5.3322 12.0377C5.4732 12.1787 5.66444 12.2579 5.86385 12.2579ZM8.49536 12.2579C8.69477 12.2579 8.88601 12.1787 9.02701 12.0377C9.16801 11.8967 9.24723 11.7054 9.24723 11.506C9.24723 11.3066 9.16801 11.1154 9.02701 10.9744C8.88601 10.8334 8.69477 10.7542 8.49536 10.7542C8.29596 10.7542 8.10472 10.8334 7.96372 10.9744C7.82272 11.1154 7.7435 11.3066 7.7435 11.506C7.7435 11.7054 7.82272 11.8967 7.96372 12.0377C8.10472 12.1787 8.29596 12.2579 8.49536 12.2579ZM11.1269 12.2579C11.3263 12.2579 11.5175 12.1787 11.6585 12.0377C11.7995 11.8967 11.8787 11.7054 11.8787 11.506C11.8787 11.3066 11.7995 11.1154 11.6585 10.9744C11.5175 10.8334 11.3263 10.7542 11.1269 10.7542C10.9275 10.7542 10.7362 10.8334 10.5952 10.9744C10.4542 11.1154 10.375 11.3066 10.375 11.506C10.375 11.7054 10.4542 11.8967 10.5952 12.0377C10.7362 12.1787 10.9275 12.2579 11.1269 12.2579Z" fill="#7D72CB"/>
<path opacity="0.6" d="M14.4981 11.8879C14.5792 11.8545 14.6595 11.8189 14.7387 11.7812C14.9575 11.6759 15.2063 11.6391 15.4409 11.7022L16.1898 11.903C16.3245 11.9392 16.4664 11.9393 16.6011 11.9032C16.7359 11.8672 16.8587 11.7963 16.9574 11.6977C17.056 11.599 17.1269 11.4761 17.163 11.3414C17.199 11.2066 17.1989 11.0648 17.1627 10.9301L16.9619 10.1812C16.9037 9.94494 16.9316 9.69564 17.0409 9.4782C17.3157 8.88998 17.4706 8.2529 17.4964 7.60416C17.5223 6.95542 17.4186 6.30803 17.1915 5.69981C16.9643 5.09158 16.6183 4.53471 16.1735 4.06173C15.7287 3.58874 15.1942 3.20911 14.6011 2.94502C14.008 2.68093 13.3682 2.53767 12.7191 2.52361C12.07 2.50954 11.4246 2.62496 10.8206 2.86311C10.2166 3.10126 9.66607 3.45738 9.20124 3.91066C8.73641 4.36394 8.36655 4.90529 8.11328 5.50311C8.96589 5.44873 9.82031 5.57662 10.6196 5.87824C11.419 6.17986 12.1449 6.64831 12.749 7.25239C13.3532 7.85646 13.8217 8.58231 14.1234 9.38161C14.4251 10.1809 14.5531 11.0353 14.4988 11.8879H14.4981Z" fill="#7D72CB"/>
</g>
<defs>
<clipPath id="clip0_890_46394">
<rect width="20" height="20" fill="white"/>
</clipPath>
</defs>
</svg>
