<svg width="40" height="40" viewBox="0 0 40 40" fill="none" xmlns="http://www.w3.org/2000/svg">
<path opacity="0.3" d="M20.0008 35.0008C12.9294 35.0008 9.39374 35.0008 7.19612 32.8032C5 30.6085 5 27.0713 5 20C5 12.9286 5 9.39288 7.19612 7.19526C9.39524 4.99915 12.9294 4.99915 20.0008 4.99915C27.0722 4.99915 30.6079 4.99915 32.804 7.19526C35.0016 9.39438 35.0016 12.9286 35.0016 20C35.0016 27.0713 35.0016 30.607 32.804 32.8032C30.6094 35.0008 27.0722 35.0008 20.0008 35.0008Z" fill="#03E39E"/>
<path d="M28.5375 13.7052C28.8343 13.9974 29.001 14.3934 29.001 14.8063C29.001 15.2192 28.8343 15.6152 28.5375 15.9073L17.9711 26.2946C17.6739 26.5864 17.2711 26.7503 16.851 26.7503C16.431 26.7503 16.0282 26.5864 15.731 26.2946L11.5045 22.1397C11.3487 21.9971 11.2238 21.8251 11.1372 21.6339C11.0506 21.4428 11.004 21.2365 11.0002 21.0273C10.9965 20.8181 11.0356 20.6103 11.1154 20.4163C11.1951 20.2223 11.3137 20.046 11.4642 19.8981C11.6147 19.7501 11.794 19.6335 11.9914 19.5551C12.1887 19.4767 12.4001 19.4383 12.6129 19.442C12.8257 19.4456 13.0356 19.4914 13.23 19.5766C13.4244 19.6618 13.5994 19.7845 13.7445 19.9376L16.851 22.9915L26.2974 13.7052C26.5946 13.4135 26.9974 13.2496 27.4174 13.2496C27.8374 13.2496 28.2403 13.4135 28.5375 13.7052Z" fill="#03E39E"/>
</svg>
