<svg width="40" height="40" viewBox="0 0 40 40" fill="none" xmlns="http://www.w3.org/2000/svg">
<path d="M26.351 7.75306L27.399 8.37333C30.4989 10.2097 32.0481 11.1279 32.899 12.6389C33.75 14.1514 33.75 15.9847 33.75 19.6575V20.8981C33.75 24.5693 33.75 26.4057 32.899 27.9167C32.0481 29.4292 30.4989 30.3458 27.399 32.1807L26.351 32.8025C23.2511 34.6374 21.7019 35.5556 20 35.5556C18.2981 35.5556 16.7489 34.6389 13.649 32.8025L12.601 32.1807C9.50111 30.3474 7.95194 29.4276 7.10097 27.9167C6.25 26.4042 6.25 24.5708 6.25 20.8981V19.6575C6.25 15.9847 6.25 14.1499 7.10097 12.6389C7.95194 11.1264 9.50111 10.2097 12.601 8.37333L13.649 7.75306C16.7489 5.91819 18.2981 5 20 5C21.7019 5 23.2511 5.91667 26.351 7.75306Z" fill="white"/>
<path d="M15.1751 13.7402L20 18.5648L24.7999 13.7652C24.9059 13.6523 25.0336 13.5621 25.1754 13.4998C25.3171 13.4375 25.47 13.4045 25.6248 13.4027C25.9563 13.4027 26.2743 13.5344 26.5087 13.7688C26.7431 14.0032 26.8748 14.3211 26.8748 14.6526C26.8777 14.8059 26.8493 14.9581 26.7912 15.0999C26.7332 15.2418 26.6468 15.3703 26.5373 15.4776L21.675 20.2772L26.5373 25.1394C26.7433 25.3409 26.8641 25.6138 26.8748 25.9018C26.8748 26.2333 26.7431 26.5512 26.5087 26.7856C26.2743 27.02 25.9563 27.1517 25.6248 27.1517C25.4655 27.1583 25.3066 27.1317 25.1581 27.0736C25.0096 27.0155 24.8749 26.9272 24.7624 26.8142L20 21.9896L15.1876 26.8017C15.082 26.9108 14.9559 26.9979 14.8164 27.058C14.677 27.1181 14.527 27.1499 14.3752 27.1517C14.0437 27.1517 13.7257 27.02 13.4913 26.7856C13.2569 26.5512 13.1252 26.2333 13.1252 25.9018C13.1223 25.7486 13.1507 25.5963 13.2088 25.4545C13.2668 25.3126 13.3532 25.1841 13.4627 25.0769L18.325 20.2772L13.4627 15.4151C13.2567 15.2135 13.1359 14.9406 13.1252 14.6526C13.1252 14.3211 13.2569 14.0032 13.4913 13.7688C13.7257 13.5344 14.0437 13.4027 14.3752 13.4027C14.6752 13.4065 14.9626 13.5277 15.1751 13.7402Z" fill="#C52136"/>
</svg>
