<svg width="40" height="40" viewBox="0 0 40 40" fill="none" xmlns="http://www.w3.org/2000/svg">
<path opacity="0.3" d="M26.9283 6.33666L28.0717 7.01333C31.4533 9.01666 33.1433 10.0183 34.0717 11.6667C35 13.3167 35 15.3167 35 19.3233V20.6767C35 24.6817 35 26.685 34.0717 28.3333C33.1433 29.9833 31.4533 30.9833 28.0717 32.985L26.9283 33.6633C23.5467 35.665 21.8567 36.6667 20 36.6667C18.1433 36.6667 16.4533 35.6667 13.0717 33.6633L11.9283 32.985C8.54667 30.985 6.85667 29.9817 5.92833 28.3333C5 26.6833 5 24.6833 5 20.6767V19.3233C5 15.3167 5 13.315 5.92833 11.6667C6.85667 10.0167 8.54667 9.01666 11.9283 7.01333L13.0717 6.33666C16.4533 4.335 18.1433 3.33333 20 3.33333C21.8567 3.33333 23.5467 4.33333 26.9283 6.33666Z" fill="#FCB750"/>
<path d="M19.9987 10.4167C20.3302 10.4167 20.6482 10.5484 20.8826 10.7828C21.117 11.0172 21.2487 11.3351 21.2487 11.6667V21.6667C21.2487 21.9982 21.117 22.3161 20.8826 22.5505C20.6482 22.785 20.3302 22.9167 19.9987 22.9167C19.6672 22.9167 19.3492 22.785 19.1148 22.5505C18.8804 22.3161 18.7487 21.9982 18.7487 21.6667V11.6667C18.7487 11.3351 18.8804 11.0172 19.1148 10.7828C19.3492 10.5484 19.6672 10.4167 19.9987 10.4167ZM19.9987 28.3333C20.4407 28.3333 20.8646 28.1577 21.1772 27.8452C21.4898 27.5326 21.6654 27.1087 21.6654 26.6667C21.6654 26.2246 21.4898 25.8007 21.1772 25.4881C20.8646 25.1756 20.4407 25 19.9987 25C19.5567 25 19.1327 25.1756 18.8202 25.4881C18.5076 25.8007 18.332 26.2246 18.332 26.6667C18.332 27.1087 18.5076 27.5326 18.8202 27.8452C19.1327 28.1577 19.5567 28.3333 19.9987 28.3333Z" fill="#FCB750"/>
</svg>
