<svg width="40" height="40" viewBox="0 0 40 40" fill="none" xmlns="http://www.w3.org/2000/svg">
<path d="M19.9989 35.0006C12.9275 35.0006 9.39179 35.0006 7.19417 32.803C4.99805 30.6084 4.99805 27.0712 4.99805 19.9998C4.99805 12.9285 4.99805 9.39276 7.19417 7.19514C9.39328 4.99902 12.9275 4.99902 19.9989 4.99902C27.0702 4.99902 30.6059 4.99902 32.8021 7.19514C34.9997 9.39426 34.9997 12.9285 34.9997 19.9998C34.9997 27.0712 34.9997 30.6069 32.8021 32.803C30.6074 35.0006 27.0702 35.0006 19.9989 35.0006Z" fill="white"/>
<path d="M28.5365 13.7052C28.8333 13.9973 29 14.3933 29 14.8062C29 15.2191 28.8333 15.6151 28.5365 15.9073L17.9701 26.2946C17.6729 26.5864 17.2701 26.7502 16.8501 26.7502C16.43 26.7502 16.0272 26.5864 15.73 26.2946L11.5035 22.1397C11.3478 21.997 11.2229 21.825 11.1362 21.6339C11.0496 21.4428 11.003 21.2364 10.9993 21.0272C10.9955 20.818 11.0347 20.6102 11.1144 20.4162C11.1941 20.2222 11.3127 20.046 11.4632 19.898C11.6138 19.75 11.793 19.6334 11.9904 19.555C12.1877 19.4767 12.3991 19.4382 12.6119 19.4419C12.8248 19.4456 13.0346 19.4914 13.229 19.5765C13.4235 19.6617 13.5984 19.7845 13.7435 19.9376L16.8501 22.9914L26.2964 13.7052C26.5936 13.4134 26.9964 13.2495 27.4164 13.2495C27.8365 13.2495 28.2393 13.4134 28.5365 13.7052Z" fill="#03986A"/>
</svg>
