<svg width="16" height="17" viewBox="0 0 16 17" fill="none" xmlns="http://www.w3.org/2000/svg">
<g id="solar:check-square-bold-duotone">
<g id="Group">
<path id="Vector" opacity="0.4" d="M7.9987 15.1668C4.85603 15.1668 3.2847 15.1668 2.30803 14.1902C1.33203 13.2148 1.33203 11.6428 1.33203 8.50016C1.33203 5.3575 1.33203 3.78616 2.30803 2.8095C3.28536 1.8335 4.85603 1.8335 7.9987 1.8335C11.1414 1.8335 12.7127 1.8335 13.6887 2.8095C14.6654 3.78683 14.6654 5.3575 14.6654 8.50016C14.6654 11.6428 14.6654 13.2142 13.6887 14.1902C12.7134 15.1668 11.1414 15.1668 7.9987 15.1668Z" fill="white"/>
<path id="Vector_2" d="M11.794 5.70251C11.9259 5.83234 12 6.00834 12 6.19184C12 6.37534 11.9259 6.55133 11.794 6.68117L7.09809 11.2975C6.96602 11.4272 6.78698 11.5 6.60032 11.5C6.41366 11.5 6.23463 11.4272 6.10256 11.2975L4.22419 9.45096C4.15498 9.38757 4.09948 9.31112 4.06098 9.22618C4.02248 9.14124 4.00178 9.04955 4.00011 8.95657C3.99844 8.8636 4.01584 8.77125 4.05127 8.68502C4.08669 8.5988 4.13942 8.52048 4.20631 8.45473C4.2732 8.38897 4.35287 8.33713 4.44058 8.30231C4.52829 8.26748 4.62223 8.25038 4.71681 8.25202C4.81139 8.25366 4.90466 8.27401 4.99107 8.31186C5.07747 8.3497 5.15524 8.40427 5.21972 8.4723L6.60032 9.8295L10.7985 5.70251C10.9305 5.57284 11.1096 5.5 11.2962 5.5C11.4829 5.5 11.6619 5.57284 11.794 5.70251Z" fill="white"/>
</g>
</g>
</svg>
