<svg width="25" height="25" viewBox="0 0 25 25" fill="none" xmlns="http://www.w3.org/2000/svg">
<path fill-rule="evenodd" clip-rule="evenodd" d="M14.5 21V4.75C14.5 4.022 14.498 3.55 14.452 3.204C14.408 2.879 14.337 2.777 14.28 2.72C14.223 2.663 14.121 2.592 13.796 2.548C13.449 2.502 12.978 2.5 12.25 2.5C11.522 2.5 11.05 2.502 10.704 2.548C10.379 2.592 10.277 2.663 10.22 2.72C10.163 2.777 10.092 2.879 10.048 3.204C10.002 3.551 10 4.022 10 4.75V21H14.5Z" fill="white"/>
<path opacity="0.5" d="M8.5 9.25C8.5 9.05109 8.42098 8.86032 8.28033 8.71967C8.13968 8.57902 7.94891 8.5 7.75 8.5H4.75C4.55109 8.5 4.36032 8.57902 4.21967 8.71967C4.07902 8.86032 4 9.05109 4 9.25V21H8.5V9.25ZM20.5 14.25C20.5 14.0511 20.421 13.8603 20.2803 13.7197C20.1397 13.579 19.9489 13.5 19.75 13.5H16.75C16.5511 13.5 16.3603 13.579 16.2197 13.7197C16.079 13.8603 16 14.0511 16 14.25V21H20.5V14.25Z" fill="white"/>
<path opacity="0.5" d="M2.25 21C2.05109 21 1.86032 21.079 1.71967 21.2197C1.57902 21.3603 1.5 21.5511 1.5 21.75C1.5 21.9489 1.57902 22.1397 1.71967 22.2803C1.86032 22.421 2.05109 22.5 2.25 22.5H22.25C22.4489 22.5 22.6397 22.421 22.7803 22.2803C22.921 22.1397 23 21.9489 23 21.75C23 21.5511 22.921 21.3603 22.7803 21.2197C22.6397 21.079 22.4489 21 22.25 21H2.25Z" fill="white"/>
</svg>
