<svg width="16" height="16" viewBox="0 0 16 16" fill="none" xmlns="http://www.w3.org/2000/svg">
<path opacity="0.2" d="M7.9987 14.6668C4.85603 14.6668 3.2847 14.6668 2.30803 13.6902C1.33203 12.7148 1.33203 11.1428 1.33203 8.00016C1.33203 4.8575 1.33203 3.28616 2.30803 2.3095C3.28536 1.3335 4.85603 1.3335 7.9987 1.3335C11.1414 1.3335 12.7127 1.3335 13.6887 2.3095C14.6654 3.28683 14.6654 4.8575 14.6654 8.00016C14.6654 11.1428 14.6654 12.7142 13.6887 13.6902C12.7134 14.6668 11.1414 14.6668 7.9987 14.6668Z" fill="#5A5D72"/>
<path d="M5.54371 4.67181L8 7.12799L10.4436 4.68453C10.4975 4.62708 10.5626 4.58113 10.6347 4.54942C10.7069 4.51771 10.7847 4.5009 10.8636 4.5C11.0323 4.5 11.1942 4.56704 11.3135 4.68637C11.4329 4.80571 11.4999 4.96756 11.4999 5.13632C11.5014 5.21433 11.4869 5.29183 11.4574 5.36404C11.4278 5.43626 11.3838 5.50168 11.3281 5.55629L8.8527 7.99975L11.3281 10.475C11.433 10.5776 11.4945 10.7166 11.4999 10.8632C11.4999 11.0319 11.4329 11.1938 11.3135 11.3131C11.1942 11.4325 11.0323 11.4995 10.8636 11.4995C10.7825 11.5029 10.7015 11.4893 10.626 11.4597C10.5504 11.4302 10.4818 11.3852 10.4245 11.3277L8 8.8715L5.55007 11.3213C5.4963 11.3769 5.43207 11.4212 5.36108 11.4518C5.29009 11.4824 5.21374 11.4986 5.13645 11.4995C4.96768 11.4995 4.80582 11.4325 4.68648 11.3131C4.56715 11.1938 4.5001 11.0319 4.5001 10.8632C4.49862 10.7852 4.51309 10.7077 4.54264 10.6355C4.57219 10.5632 4.61618 10.4978 4.67192 10.4432L7.1473 7.99975L4.67192 5.52447C4.56704 5.42187 4.50554 5.28293 4.5001 5.13632C4.5001 4.96756 4.56715 4.80571 4.68648 4.68637C4.80582 4.56704 4.96768 4.5 5.13645 4.5C5.28917 4.50191 5.43553 4.56363 5.54371 4.67181Z" fill="#5A5D72"/>
</svg>
