<svg width="24" height="24" viewBox="0 0 24 24" fill="none" xmlns="http://www.w3.org/2000/svg">
<g id="solar:check-square-bold-duotone">
<g id="Group">
<path id="Vector" opacity="0.2" d="M12 22C7.286 22 4.929 22 3.464 20.535C2 19.072 2 16.714 2 12C2 7.286 2 4.929 3.464 3.464C4.93 2 7.286 2 12 2C16.714 2 19.071 2 20.535 3.464C22 4.93 22 7.286 22 12C22 16.714 22 19.071 20.535 20.535C19.072 22 16.714 22 12 22Z" fill="#03E39E"/>
<path id="Vector_2" d="M17.691 7.80376C17.8889 7.99852 18 8.26251 18 8.53776C18 8.81301 17.8889 9.077 17.691 9.27175L10.6471 16.1962C10.449 16.3907 10.1805 16.5 9.90048 16.5C9.62049 16.5 9.35194 16.3907 9.15383 16.1962L6.33629 13.4264C6.23248 13.3314 6.14922 13.2167 6.09147 13.0893C6.03372 12.9619 6.00267 12.8243 6.00016 12.6849C5.99766 12.5454 6.02376 12.4069 6.0769 12.2775C6.13004 12.1482 6.20913 12.0307 6.30946 11.9321C6.4098 11.8335 6.52931 11.7557 6.66087 11.7035C6.79243 11.6512 6.93335 11.6256 7.07522 11.628C7.21709 11.6305 7.357 11.661 7.4866 11.7178C7.61621 11.7746 7.73286 11.8564 7.82959 11.9585L9.90048 13.9943L16.1977 7.80376C16.3958 7.60925 16.6644 7.5 16.9443 7.5C17.2243 7.5 17.4929 7.60925 17.691 7.80376Z" fill="#03E39E"/>
</g>
</g>
</svg>
